<?xml version="1.0" encoding="UTF-8"?>
<svg width="439px" height="220px" viewBox="0 0 439 220" version="1.1" xmlns="http://www.w3.org/2000/svg" xmlns:xlink="http://www.w3.org/1999/xlink">
    <!-- Generator: Sketch 55.2 (78181) - https://sketchapp.com -->
    <title>logo</title>
    <desc>Created with Sketch.</desc>
    <defs>
        <path d="M5.30958785,86.416 C-9.57978308,137.774522 11.3789154,191.051826 53.455705,219.343826 C16.4260304,190.34113 -0.96208243,138.922348 13.567462,88.8283478 C28.097961,38.7343478 70.2816486,4.65826087 117.045727,0.0640869565 C66.3941866,1.34965217 20.1922777,35.0517391 5.30958785,86.416" id="path-1"></path>
    </defs>
    <g id="Page-1" stroke="none" stroke-width="1" fill="none" fill-rule="evenodd">
        <g id="about_10x" transform="translate(-170.000000, -3430.000000)">
            <g id="logo-meaning" transform="translate(0.000000, 3140.000000)">
                <g id="04">
                    <g id="logo" transform="translate(170.000000, 290.000000)">
                        <g id="10x" transform="translate(246.483037, 86.264124)" fill-rule="nonzero">
                            <path d="M10.2087636,77.8616149 C4.56416486,77.8616149 5.68434189e-14,73.2760497 5.68434189e-14,67.615354 L5.68434189e-14,10.5875279 C5.68434189e-14,4.92491922 4.56416486,0.329788784 10.2087636,0.329788784 C15.8609978,0.329788784 20.4327983,4.92491922 20.4327983,10.5875279 L20.4327983,67.615354 C20.4327983,73.2760497 15.8609978,77.8616149 10.2087636,77.8616149" id="Path" fill="#929497"></path>
                            <path d="M70.7531453,77.8616149 C49.4193492,77.8616149 32.0760954,60.4758757 32.0760954,39.1004844 C32.0760954,17.7231801 49.4203037,0.330745305 70.7531453,0.330745305 C92.0802603,0.330745305 109.43115,17.7241366 109.43115,39.1004844 C109.43115,60.4758757 92.0802603,77.8616149 70.7531453,77.8616149 M70.7531453,20.8357018 C60.70282,20.8357018 52.5298915,29.0302236 52.5298915,39.1004844 C52.5298915,49.1688323 60.7018655,57.3700497 70.7531453,57.3700497 C80.7967896,57.3700497 88.9840347,49.1697888 88.9840347,39.1004844 C88.9840347,29.0302236 80.7967896,20.8357018 70.7531453,20.8357018" id="Shape" fill="#00AEC5"></path>
                            <path d="M131.298482,3.0979627 L144.091887,15.9210931 C148.080521,19.917441 148.180738,26.2955279 144.32859,30.1598757 C140.469761,34.0270931 134.098829,33.9266583 130.109241,29.929354 L117.322516,17.1071801 C113.333883,13.1108323 113.233666,6.73274531 117.092495,2.86648444 C120.944642,-0.998819912 127.308894,-0.898385129 131.298482,3.0979627 Z M176.542126,48.4323105 L189.329805,61.2544844 C193.319393,65.2489192 193.41961,71.6308323 189.560781,75.4980497 C185.700998,79.3623975 179.343427,79.2581366 175.354794,75.2608323 L162.560434,62.4424844 C158.5718,58.4442236 158.463948,52.0661366 162.322777,48.2017888 C166.18256,44.3345714 172.545857,44.4350062 176.542126,48.4323105 Z M189.293536,17.0737018 L176.506811,29.8920497 C172.517223,33.889354 166.152972,33.997441 162.293189,30.1302236 C158.43436,26.2639627 158.542213,19.8858757 162.530846,15.8857018 L175.31757,3.06926704 C179.313839,-0.93186339 185.67141,-1.03229817 189.531193,2.8339627 C193.390022,6.70118009 193.289805,13.0725714 189.293536,17.0737018 Z M144.056573,62.4137888 L131.270803,75.229267 C127.282169,79.2303975 120.924599,79.3308323 117.058134,75.4636149 C113.205987,71.599267 113.306204,65.2240497 117.294837,61.2229192 L130.081562,48.4083975 C134.077831,44.4110931 140.434447,44.2991801 144.301866,48.1635279 C148.153059,52.0336149 148.052842,58.4088323 144.056573,62.4137888 Z" id="Combined-Shape" fill="#EDE945"></path>
                            <path d="M160.313666,32.1800497 C164.18013,36.043441 164.18013,42.3067453 160.313666,46.1777888 C156.461518,50.0459627 150.205119,50.0459627 146.338655,46.1777888 C142.486508,42.3105714 142.486508,36.043441 146.338655,32.1800497 C150.205119,28.3080497 156.461518,28.3118757 160.313666,32.1800497 Z" id="Path" fill="#BED731"></path>
                        </g>
                        <g id="scb" transform="translate(0.719653, 87.867043)" fill="#4C2D83" fill-rule="nonzero">
                            <path d="M0,67.9465217 L4.91062907,56.7226957 C9.92147505,60.0313043 17.7049892,63.9922609 26.4381779,63.9922609 C34.5519306,63.9922609 39.0311497,60.6769565 39.0311497,55.4428696 C39.0311497,49.1393913 32.730846,46.6830435 24.0978742,43.3744348 C12.3763124,38.8835652 1.38967462,33.0133913 1.38967462,20.2954783 C1.38967462,8.228 11.4046855,2.84217094e-14 28.0368764,2.84217094e-14 C36.4675054,2.84217094e-14 44.0353145,2.02686957 49.5711063,5.12791304 L45.7332755,16.0236522 C40.9448156,13.355913 34.9690239,11.1061739 27.826898,11.1061739 C19.7265076,11.1061739 15.363731,14.100087 15.363731,18.9056522 C15.363731,25.3181739 23.1396095,28.6248696 31.4490239,32.1544348 C43.2851193,37.18 52.9832538,41.7684348 52.9832538,54.1649565 C52.9832538,66.2333913 43.6019957,74.996087 25.5877657,74.996087 C17.7049892,74.996087 9.28772234,73.2829565 0,67.9465217 L0,67.9465217 Z M61.5169631,37.598 C61.5169631,15.1723478 77.4065944,0.209478261 98.927462,0.209478261 C108.208503,0.209478261 116.732668,2.98721739 123.875748,7.15191304 L118.979436,17.840087 C113.853102,14.5276522 106.710976,12.3850435 100.209284,12.3850435 C85.8162256,12.3850435 76.226898,21.8966957 76.226898,37.8141739 C76.226898,53.6273913 85.81718,62.9247826 100.109067,62.9247826 C106.710976,62.9247826 114.069761,60.6769565 119.397484,57.3683478 L124.308113,68.0546087 C117.280521,72.1131304 108.634187,74.996087 99.151757,74.996087 C77.5001302,74.996087 61.5169631,60.0313043 61.5169631,37.598 L61.5169631,37.598 Z M135.813015,1.06556522 L163.950108,1.06556522 C177.284685,1.06556522 186.550456,8.86504348 186.550456,19.3303478 C186.550456,25.9542609 182.403384,31.7211304 174.836529,34.1927826 L174.836529,34.8269565 C184.959393,37.071913 190.935184,44.441913 190.935184,53.5231304 C190.935184,67.8355652 179.199306,73.9247826 166.303774,73.9247826 L135.812061,73.9247826 L135.812061,1.06556522 L135.813015,1.06556522 Z M160.221085,31.3021739 C167.686768,31.3021739 172.280521,27.5573913 172.280521,21.2615652 C172.280521,15.5989565 167.903427,12.0636522 161.516269,12.0636522 L149.888243,12.0636522 L149.888243,31.3021739 L160.221085,31.3021739 Z M162.034534,62.9247826 C171.53128,62.9247826 176.427592,59.288087 176.427592,52.3466087 C176.427592,46.1483478 171.207722,42.3021739 163.100651,42.3021739 L149.889197,42.3021739 L149.889197,62.9247826 L162.034534,62.9247826 Z" id="Shape"></path>
                        </g>
                        <g id="moon" transform="translate(210.932755, 0.000000)">
                            <mask id="mask-2" fill="white">
                                <use xlink:href="#path-1"></use>
                            </mask>
                            <g id="SVGID_1_"></g>
                            <polygon id="Path" fill="#4C2D83" fill-rule="nonzero" mask="url(#mask-2)" points="167.57987 -59.5693043 -112.386117 136.880174 -112.386117 -59.5693043"></polygon>
                            <polygon id="Path" fill="#4C2D83" fill-rule="nonzero" mask="url(#mask-2)" points="170.88321 -59.5693043 -112.386117 139.211217 -112.386117 136.868696 167.550282 -59.5693043"></polygon>
                            <polygon id="Path" fill="#4F2D83" fill-rule="nonzero" mask="url(#mask-2)" points="174.219957 -59.5693043 -112.386117 141.549913 -112.386117 139.211217 170.88321 -59.5693043"></polygon>
                            <polygon id="Path" fill="#522D83" fill-rule="nonzero" mask="url(#mask-2)" points="177.556703 -59.5693043 -112.386117 143.889565 -112.386117 141.549913 174.219957 -59.5693043"></polygon>
                            <polygon id="Path" fill="#542D83" fill-rule="nonzero" mask="url(#mask-2)" points="180.889631 -59.5693043 -112.386117 146.232087 -112.386117 143.889565 177.556703 -59.5693043"></polygon>
                            <polygon id="Path" fill="#572D82" fill-rule="nonzero" mask="url(#mask-2)" points="184.227332 -59.5693043 -112.386117 148.570783 -112.386117 146.232087 180.889631 -59.5693043"></polygon>
                            <polygon id="Path" fill="#592D83" fill-rule="nonzero" mask="url(#mask-2)" points="187.564078 -59.5693043 -112.386117 150.913304 -112.386117 148.570783 184.227332 -59.5693043"></polygon>
                            <polygon id="Path" fill="#5C2D82" fill-rule="nonzero" mask="url(#mask-2)" points="190.897007 -59.5693043 -112.386117 153.252957 -112.386117 150.913304 187.564078 -59.5693043"></polygon>
                            <polygon id="Path" fill="#5E2D81" fill-rule="nonzero" mask="url(#mask-2)" points="194.233753 -59.5693043 -112.386117 155.591652 -112.386117 153.252957 190.897007 -59.5693043"></polygon>
                            <polygon id="Path" fill="#612E81" fill-rule="nonzero" mask="url(#mask-2)" points="197.570499 -59.5693043 -112.386117 157.934174 -112.386117 155.591652 194.233753 -59.5693043"></polygon>
                            <polygon id="Path" fill="#632F81" fill-rule="nonzero" mask="url(#mask-2)" points="200.903427 -59.5693043 -112.386117 160.276696 -112.386117 157.934174 197.570499 -59.5693043"></polygon>
                            <polygon id="Path" fill="#652F80" fill-rule="nonzero" mask="url(#mask-2)" points="204.240174 -59.5693043 -112.386117 162.616348 -112.386117 160.276696 200.903427 -59.5693043"></polygon>
                            <polygon id="Path" fill="#673080" fill-rule="nonzero" mask="url(#mask-2)" points="207.57692 -59.5693043 -112.386117 164.955043 -112.386117 162.616348 204.240174 -59.5693043"></polygon>
                            <polygon id="Path" fill="#6A3081" fill-rule="nonzero" mask="url(#mask-2)" points="210.910803 -59.5693043 -112.386117 167.297565 -112.386117 164.955043 207.57692 -59.5693043"></polygon>
                            <polygon id="Path" fill="#6C3281" fill-rule="nonzero" mask="url(#mask-2)" points="214.247549 -59.5693043 -112.386117 169.641043 -112.386117 167.297565 210.910803 -59.5693043"></polygon>
                            <polygon id="Path" fill="#6E3280" fill-rule="nonzero" mask="url(#mask-2)" points="217.580477 -59.5693043 -112.386117 171.979739 -112.386117 169.641043 214.247549 -59.5693043"></polygon>
                            <polygon id="Path" fill="#703380" fill-rule="nonzero" mask="url(#mask-2)" points="219.854924 -58.826087 -112.386117 174.318435 -112.386117 171.979739 217.580477 -59.5693043 219.854924 -59.5693043"></polygon>
                            <polygon id="Path" fill="#723480" fill-rule="nonzero" mask="url(#mask-2)" points="219.854924 -56.4835652 -112.386117 176.660957 -112.386117 174.318435 219.854924 -58.826087"></polygon>
                            <polygon id="Path" fill="#74347E" fill-rule="nonzero" mask="url(#mask-2)" points="219.854924 -54.143913 -112.386117 179.000609 -112.386117 176.660957 219.854924 -56.4835652"></polygon>
                            <polygon id="Path" fill="#75357F" fill-rule="nonzero" mask="url(#mask-2)" points="219.854924 -51.8013913 -112.386117 181.34313 -112.386117 179.000609 219.854924 -54.143913"></polygon>
                            <polygon id="Path" fill="#77357F" fill-rule="nonzero" mask="url(#mask-2)" points="219.854924 -49.4626957 -112.386117 183.681826 -112.386117 181.34313 219.854924 -51.8013913"></polygon>
                            <polygon id="Path" fill="#79367F" fill-rule="nonzero" mask="url(#mask-2)" points="219.854924 -47.124 -112.386117 186.021478 -112.386117 183.681826 219.854924 -49.4626957"></polygon>
                            <polygon id="Path" fill="#7A367D" fill-rule="nonzero" mask="url(#mask-2)" points="219.854924 -44.7805217 -112.386117 188.364 -112.386117 186.021478 219.854924 -47.124"></polygon>
                            <polygon id="Path" fill="#7C377D" fill-rule="nonzero" mask="url(#mask-2)" points="219.854924 -42.438 -112.386117 190.702696 -112.386117 188.364 219.854924 -44.7805217"></polygon>
                            <polygon id="Path" fill="#7E377E" fill-rule="nonzero" mask="url(#mask-2)" points="219.854924 -40.0993043 -112.386117 193.045217 -112.386117 190.702696 219.854924 -42.438"></polygon>
                            <polygon id="Path" fill="#80387E" fill-rule="nonzero" mask="url(#mask-2)" points="219.854924 -37.7606087 -112.386117 195.38487 -112.386117 193.045217 219.854924 -40.0993043"></polygon>
                            <polygon id="Path" fill="#81387D" fill-rule="nonzero" mask="url(#mask-2)" points="219.854924 -35.4171304 -112.386117 197.723565 -112.386117 195.38487 219.854924 -37.7606087"></polygon>
                            <polygon id="Path" fill="#83387D" fill-rule="nonzero" mask="url(#mask-2)" points="219.854924 -33.0784348 -112.386117 200.066087 -112.386117 197.723565 219.854924 -35.4171304"></polygon>
                            <polygon id="Path" fill="#84397D" fill-rule="nonzero" mask="url(#mask-2)" points="219.854924 -30.735913 -112.386117 202.408609 -112.386117 200.066087 219.854924 -33.0784348"></polygon>
                            <polygon id="Path" fill="#85397D" fill-rule="nonzero" mask="url(#mask-2)" points="219.854924 -28.3972174 -112.386117 204.748261 -112.386117 202.408609 219.854924 -30.735913"></polygon>
                            <polygon id="Path" fill="#873A7D" fill-rule="nonzero" mask="url(#mask-2)" points="219.854924 -26.0537391 -112.386117 207.086957 -112.386117 204.748261 219.854924 -28.3972174"></polygon>
                            <polygon id="Path" fill="#883A7D" fill-rule="nonzero" mask="url(#mask-2)" points="219.854924 -23.7150435 -112.386117 209.429478 -112.386117 207.086957 219.854924 -26.0537391"></polygon>
                            <polygon id="Path" fill="#893A7C" fill-rule="nonzero" mask="url(#mask-2)" points="219.854924 -21.3725217 -112.386117 211.76913 -112.386117 209.429478 219.854924 -23.7150435"></polygon>
                            <polygon id="Path" fill="#8B3C7C" fill-rule="nonzero" mask="url(#mask-2)" points="219.854924 -19.0328696 -112.386117 214.111652 -112.386117 211.76913 219.854924 -21.3725217"></polygon>
                            <polygon id="Path" fill="#8C3B7C" fill-rule="nonzero" mask="url(#mask-2)" points="219.854924 -16.6941739 -112.386117 216.450348 -112.386117 214.111652 219.854924 -19.0328696"></polygon>
                            <polygon id="Path" fill="#8D3C7C" fill-rule="nonzero" mask="url(#mask-2)" points="219.854924 -14.3516522 -112.386117 218.79287 -112.386117 216.450348 219.854924 -16.6941739"></polygon>
                            <polygon id="Path" fill="#8E3D7C" fill-rule="nonzero" mask="url(#mask-2)" points="219.854924 -12.0129565 -112.386117 221.132522 -112.386117 218.79287 219.854924 -14.3516522"></polygon>
                            <polygon id="Path" fill="#8F3C7C" fill-rule="nonzero" mask="url(#mask-2)" points="219.854924 -9.66947826 -112.386117 223.475043 -112.386117 221.132522 219.854924 -12.0129565"></polygon>
                            <polygon id="Path" fill="#903C7B" fill-rule="nonzero" mask="url(#mask-2)" points="219.854924 -7.33078261 -112.386117 225.813739 -112.386117 223.475043 219.854924 -9.66947826"></polygon>
                            <polygon id="Path" fill="#913C7B" fill-rule="nonzero" mask="url(#mask-2)" points="219.854924 -4.98826087 -112.386117 228.152435 -112.386117 225.813739 219.854924 -7.33078261"></polygon>
                            <polygon id="Path" fill="#923D7B" fill-rule="nonzero" mask="url(#mask-2)" points="219.854924 -2.64956522 -112.386117 230.495913 -112.386117 228.152435 219.854924 -4.98826087"></polygon>
                            <polygon id="Path" fill="#933D7B" fill-rule="nonzero" mask="url(#mask-2)" points="219.854924 -0.306086957 -112.386117 232.838435 -112.386117 230.495913 219.854924 -2.64956522"></polygon>
                            <polygon id="Path" fill="#933D7B" fill-rule="nonzero" mask="url(#mask-2)" points="219.854924 2.0326087 -112.386117 235.17713 -112.386117 232.838435 219.854924 -0.306086957"></polygon>
                            <polygon id="Path" fill="#953D7B" fill-rule="nonzero" mask="url(#mask-2)" points="219.854924 4.37130435 -112.386117 237.515826 -112.386117 235.17713 219.854924 2.0326087"></polygon>
                            <polygon id="Path" fill="#953E7B" fill-rule="nonzero" mask="url(#mask-2)" points="219.854924 6.71478261 -112.386117 239.859304 -112.386117 237.515826 219.854924 4.37130435"></polygon>
                            <polygon id="Path" fill="#963E7B" fill-rule="nonzero" mask="url(#mask-2)" points="219.854924 9.05347826 -112.386117 242.198 -112.386117 239.859304 219.854924 6.71478261"></polygon>
                            <polygon id="Path" fill="#973E7A" fill-rule="nonzero" mask="url(#mask-2)" points="219.854924 11.396 -112.386117 244.540522 -112.386117 242.198 219.854924 9.05347826"></polygon>
                            <polygon id="Path" fill="#983E79" fill-rule="nonzero" mask="url(#mask-2)" points="219.854924 13.7346957 -112.386117 246.880174 -112.386117 244.540522 219.854924 11.396"></polygon>
                            <polygon id="Path" fill="#983F7A" fill-rule="nonzero" mask="url(#mask-2)" points="219.854924 16.0781739 -112.386117 249.21887 -112.386117 246.880174 219.854924 13.7346957"></polygon>
                            <polygon id="Path" fill="#993F7A" fill-rule="nonzero" mask="url(#mask-2)" points="219.854924 18.4168696 -112.386117 251.561391 -112.386117 249.21887 219.854924 16.0781739"></polygon>
                            <polygon id="Path" fill="#9A3F79" fill-rule="nonzero" mask="url(#mask-2)" points="219.854924 20.7593913 -112.386117 253.900087 -112.386117 251.561391 219.854924 18.4168696"></polygon>
                            <polygon id="Path" fill="#9A3F79" fill-rule="nonzero" mask="url(#mask-2)" points="219.854924 23.098087 -112.386117 256.243565 -112.386117 253.900087 219.854924 20.7593913"></polygon>
                            <polygon id="Path" fill="#9B3F7A" fill-rule="nonzero" mask="url(#mask-2)" points="219.854924 25.4377391 -112.386117 258.582261 -112.386117 256.243565 219.854924 23.098087"></polygon>
                            <polygon id="Path" fill="#9B3F7A" fill-rule="nonzero" mask="url(#mask-2)" points="219.854924 27.7802609 -112.386117 260.920957 -112.386117 258.582261 219.854924 25.4377391"></polygon>
                            <polygon id="Path" fill="#9C3F7A" fill-rule="nonzero" mask="url(#mask-2)" points="219.854924 30.1189565 -112.386117 263.263478 -112.386117 260.920957 219.854924 27.7802609"></polygon>
                            <polygon id="Path" fill="#9C4079" fill-rule="nonzero" mask="url(#mask-2)" points="219.854924 32.4624348 -112.386117 265.606957 -112.386117 263.263478 219.854924 30.1189565"></polygon>
                            <polygon id="Path" fill="#9D4079" fill-rule="nonzero" mask="url(#mask-2)" points="219.854924 34.8011304 -112.386117 267.945652 -112.386117 265.606957 219.854924 32.4624348"></polygon>
                            <polygon id="Path" fill="#9D4079" fill-rule="nonzero" mask="url(#mask-2)" points="219.854924 37.1398261 -112.386117 270.284348 -112.386117 267.945652 219.854924 34.8011304"></polygon>
                            <polygon id="Path" fill="#9D4079" fill-rule="nonzero" mask="url(#mask-2)" points="219.854924 39.4823478 -112.386117 272.627826 -112.386117 270.284348 219.854924 37.1398261"></polygon>
                            <polygon id="Path" fill="#9E4079" fill-rule="nonzero" mask="url(#mask-2)" points="219.854924 41.8258261 -112.386117 274.970348 -112.386117 272.627826 219.854924 39.4823478"></polygon>
                            <polygon id="Path" fill="#9E4079" fill-rule="nonzero" mask="url(#mask-2)" points="219.854924 44.1645217 -112.386117 277.309043 -112.386117 274.970348 219.854924 41.8258261"></polygon>
                            <polygon id="Path" fill="#9E4079" fill-rule="nonzero" mask="url(#mask-2)" points="219.854924 46.5032174 -111.424035 278.971478 -112.386117 278.971478 -112.386117 277.309043 219.854924 44.1645217"></polygon>
                            <polygon id="Path" fill="#9F4079" fill-rule="nonzero" mask="url(#mask-2)" points="219.854924 48.8457391 -108.087289 278.971478 -111.424035 278.971478 219.854924 46.5032174"></polygon>
                            <polygon id="Path" fill="#9F4079" fill-rule="nonzero" mask="url(#mask-2)" points="219.854924 51.1853913 -104.75436 278.971478 -108.087289 278.971478 219.854924 48.8457391"></polygon>
                            <polygon id="Path" fill="#9F4079" fill-rule="nonzero" mask="url(#mask-2)" points="219.854924 53.527913 -101.417614 278.971478 -104.75436 278.971478 219.854924 51.1853913"></polygon>
                            <polygon id="Path" fill="#9F4178" fill-rule="nonzero" mask="url(#mask-2)" points="219.854924 55.8666087 -98.0808677 278.971478 -101.417614 278.971478 219.854924 53.527913"></polygon>
                            <polygon id="Path" fill="#A04178" fill-rule="nonzero" mask="url(#mask-2)" points="219.854924 58.2091304 -94.7441215 278.971478 -98.0808677 278.971478 219.854924 55.8666087"></polygon>
                            <polygon id="Path" fill="#A04178" fill-rule="nonzero" mask="url(#mask-2)" points="219.854924 60.5487826 -91.4102386 278.971478 -94.7441215 278.971478 219.854924 58.2091304"></polygon>
                            <polygon id="Path" fill="#A04178" fill-rule="nonzero" mask="url(#mask-2)" points="219.854924 62.8913043 -88.0773102 278.971478 -91.4102386 278.971478 219.854924 60.5487826"></polygon>
                            <polygon id="Path" fill="#A04178" fill-rule="nonzero" mask="url(#mask-2)" points="219.854924 65.23 -84.740564 278.971478 -88.0773102 278.971478 219.854924 62.8913043"></polygon>
                            <polygon id="Path" fill="#A04178" fill-rule="nonzero" mask="url(#mask-2)" points="219.854924 67.5696522 -81.4038178 278.971478 -84.740564 278.971478 219.854924 65.23"></polygon>
                            <polygon id="Path" fill="#A04178" fill-rule="nonzero" mask="url(#mask-2)" points="219.854924 69.9121739 -78.0670716 278.971478 -81.4038178 278.971478 219.854924 67.5696522"></polygon>
                            <polygon id="Path" fill="#A14178" fill-rule="nonzero" mask="url(#mask-2)" points="219.854924 72.2508696 -74.7341432 278.971478 -78.0670716 278.971478 219.854924 69.9121739"></polygon>
                            <polygon id="Path" fill="#A14178" fill-rule="nonzero" mask="url(#mask-2)" points="219.854924 74.5933913 -71.397397 278.971478 -74.7341432 278.971478 219.854924 72.2508696"></polygon>
                            <polygon id="Path" fill="#A14178" fill-rule="nonzero" mask="url(#mask-2)" points="219.854924 76.9330435 -68.0606508 278.971478 -71.397397 278.971478 219.854924 74.5933913"></polygon>
                            <polygon id="Path" fill="#A14178" fill-rule="nonzero" mask="url(#mask-2)" points="219.854924 79.2717391 -64.7267679 278.971478 -68.0606508 278.971478 219.854924 76.9330435"></polygon>
                            <polygon id="Path" fill="#A14178" fill-rule="nonzero" mask="url(#mask-2)" points="219.854924 81.6142609 -61.3900217 278.971478 -64.7267679 278.971478 219.854924 79.2717391"></polygon>
                            <polygon id="Path" fill="#A14178" fill-rule="nonzero" mask="url(#mask-2)" points="219.854924 83.9567826 -58.0570933 278.971478 -61.3900217 278.971478 219.854924 81.6142609"></polygon>
                            <polygon id="Path" fill="#A14178" fill-rule="nonzero" mask="url(#mask-2)" points="219.854924 86.2964348 -54.7203471 278.971478 -58.0570933 278.971478 219.854924 83.9567826"></polygon>
                            <polygon id="Path" fill="#A14178" fill-rule="nonzero" mask="url(#mask-2)" points="219.854924 88.6351304 -51.3836009 278.971478 -54.7203471 278.971478 219.854924 86.2964348"></polygon>
                            <polygon id="Path" fill="#A14178" fill-rule="nonzero" mask="url(#mask-2)" points="219.854924 90.9776522 -48.0506725 278.971478 -51.3836009 278.971478 219.854924 88.6351304"></polygon>
                            <polygon id="Path" fill="#A14178" fill-rule="nonzero" mask="url(#mask-2)" points="219.854924 93.3173043 -44.7139262 278.971478 -48.0506725 278.971478 219.854924 90.9776522"></polygon>
                            <polygon id="Path" fill="#A14178" fill-rule="nonzero" mask="url(#mask-2)" points="219.854924 95.6598261 -41.37718 278.971478 -44.7139262 278.971478 219.854924 93.3173043"></polygon>
                            <polygon id="Path" fill="#A14178" fill-rule="nonzero" mask="url(#mask-2)" points="219.854924 97.9985217 -38.0432972 278.971478 -41.37718 278.971478 219.854924 95.6598261"></polygon>
                            <polygon id="Path" fill="#A14178" fill-rule="nonzero" mask="url(#mask-2)" points="219.854924 100.341043 -34.706551 278.971478 -38.0432972 278.971478 219.854924 97.9985217"></polygon>
                            <polygon id="Path" fill="#A14178" fill-rule="nonzero" mask="url(#mask-2)" points="219.854924 102.680696 -31.3698048 278.971478 -34.706551 278.971478 219.854924 100.341043"></polygon>
                            <polygon id="Path" fill="#A14178" fill-rule="nonzero" mask="url(#mask-2)" points="-31.3698048 278.971478 219.854924 102.680696 219.854924 278.971478"></polygon>
                        </g>
                    </g>
                </g>
            </g>
        </g>
    </g>
</svg>