<svg viewBox="398.15668202764977 0 396.31336405529953 479.44" version="1.1" xmlns="http://www.w3.org/2000/svg" style="max-height: 500px" width="396.31336405529953" height="479.44">
  <defs>
    <style>
      .cls-1 {
        fill: #fff;
      }

      .cls-2 {
        fill: #57d1e5;
      }

      .cls-3 {
        fill: #3b2d55;
      }

      .cls-4 {
        fill: #4d9bb6;
      }

      .cls-5 {
        fill: #93e1ef;
      }
    </style>
  </defs>
  
  <g>
    <g id="Layer_1">
      <g data-name="Layer_1" id="Layer_1-2">
        <g>
          <g>
            <path d="M25.7,794.2c5.6,8.5,12.9,14.7,21.7,18.7,8.8,4,17.9,6,27.2,6s10.5-.8,16-2.4c5.4-1.6,10.4-4.1,14.8-7.3,4.4-3.3,8.1-7.3,10.9-12.1s4.2-10.3,4.2-16.6-2.8-15.7-8.5-20.4-12.7-8.6-21-11.7c-8.4-3.1-17.5-6.2-27.4-9.1-9.9-2.9-19-7-27.4-12.2-8.4-5.2-15.4-12.2-21-21-5.7-8.8-8.5-20.7-8.5-35.7s1.5-13.9,4.4-21.5,7.5-14.5,13.8-20.9c6.3-6.3,14.4-11.6,24.3-15.8s21.8-6.4,35.7-6.4,24.6,1.7,36.2,5.2c11.5,3.5,21.6,10.5,30.3,21.2l-25.4,23.1c-3.9-6.1-9.4-11-16.6-14.7s-15.3-5.5-24.4-5.5-15.9,1.1-21.7,3.4c-5.8,2.3-10.4,5.2-13.8,8.8-3.5,3.6-5.9,7.4-7.3,11.6-1.4,4.1-2.1,7.9-2.1,11.4,0,9.8,2.8,17.3,8.5,22.5,5.6,5.2,12.6,9.4,21,12.7,8.4,3.3,17.5,6.2,27.4,8.8s19,6.2,27.4,10.9c8.4,4.7,15.4,11,21,18.9s8.5,18.8,8.5,32.7-2.1,21.1-6.4,30c-4.2,8.9-9.9,16.4-17.1,22.5-7.2,6.1-15.6,10.8-25.4,14-9.8,3.3-20.2,4.9-31.3,4.9s-28.8-2.6-42-7.8-23.8-13.2-31.6-24.1l25.7-22.2h-.1Z" class="cls-1"/>
            <path d="M296.8,729.1c-5.4-5.6-11.1-9.9-17.1-12.9-6-2.9-13.1-4.4-21.3-4.4s-15,1.5-21,4.4-11,7-15,12.1-7.1,11-9.1,17.6c-2.1,6.6-3.1,13.5-3.1,20.7s1.2,14,3.6,20.4c2.4,6.4,5.8,12,10.1,16.8s9.6,8.5,15.6,11.2c6.1,2.7,12.9,4.1,20.5,4.1s15.3-1.5,21.2-4.4c5.9-2.9,11.3-7.2,16.3-12.9l20.9,20.9c-7.6,8.5-16.5,14.6-26.5,18.2-10.1,3.7-20.8,5.5-32.1,5.5s-22.9-2-32.7-5.9c-9.9-3.9-18.4-9.4-25.6-16.5-7.2-7.1-12.7-15.5-16.6-25.4-3.9-9.9-5.9-20.8-5.9-32.7s2-22.9,5.9-32.9,9.4-18.6,16.5-25.7c7.1-7.2,15.5-12.8,25.4-16.8s20.9-6,33.1-6,22.1,2,32.4,6,19.3,10.2,26.9,18.4l-22.2,20.2h-.2Z" class="cls-1"/>
            <path d="M329.7,688h33.9l45.7,120.5h.7l43.9-120.5h31.3l-73.3,187.7c-2.6,6.7-5.3,12.9-8.1,18.4-2.8,5.5-6.2,10.3-10.1,14.2s-8.6,6.9-14.1,9.1c-5.5,2.2-12.3,3.3-20.3,3.3s-8.7-.3-13.1-.8-8.7-1.7-12.8-3.4l3.6-26.7c5.8,2.4,11.6,3.6,17.5,3.6s8.4-.6,11.5-1.8,5.8-2.9,8.1-5.2c2.3-2.3,4.2-4.9,5.7-8,1.5-3,3-6.5,4.5-10.4l9.5-24.4-63.9-155.4-.2-.2Z" class="cls-1"/>
            <path d="M506.9,596.1h29.3v246.3h-29.3v-246.3h0Z" class="cls-1"/>
            <path d="M568.1,596.1h29.3v246.3h-29.3v-246.3Z" class="cls-1"/>
            <path d="M638.4,706.9c8.2-7.6,17.8-13.3,28.7-17.1s21.7-5.7,32.6-5.7,21,1.4,29.2,4.2c8.1,2.8,14.8,6.6,20,11.4,5.2,4.8,9.1,10.3,11.6,16.5s3.7,12.7,3.7,19.4v78.8c0,5.4,0,10.4.3,15s.5,8.9,1,13h-26.1c-.7-7.8-1-15.6-1-23.5h-.7c-6.5,10-14.2,17.1-23.1,21.2-8.9,4.1-19.2,6.2-30.9,6.2s-14-1-20.5-2.9c-6.5-2-12.2-4.9-17.1-8.8-4.9-3.9-8.7-8.7-11.6-14.5-2.8-5.8-4.2-12.4-4.2-20s2.2-18.4,6.7-25.1c4.4-6.7,10.5-12.2,18.2-16.5,7.7-4.2,16.7-7.3,27-9.1s21.3-2.8,33.1-2.8h21.5v-6.5c0-3.9-.8-7.8-2.3-11.7s-3.8-7.4-6.8-10.6c-3-3.1-6.8-5.6-11.4-7.5-4.6-1.8-10-2.8-16.3-2.8s-10.6.5-14.8,1.6-8.1,2.4-11.6,4.1c-3.5,1.6-6.6,3.5-9.4,5.7-2.8,2.2-5.5,4.2-8.1,6.2l-17.6-18.2h-.1ZM721.2,768.2c-7,0-14.1.4-21.3,1.1-7.3.8-13.9,2.2-19.9,4.4s-10.9,5.2-14.7,9.1c-3.8,3.9-5.7,8.9-5.7,15,0,8.9,3,15.3,9,19.2s14.1,5.9,24.3,5.9,14.9-1.4,20.5-4.1c5.6-2.7,10.2-6.2,13.7-10.6,3.5-4.3,6-9.2,7.5-14.5s2.3-10.6,2.3-15.8v-9.8h-15.7Z" class="cls-1"/>
            <path d="M802.9,611.8h80.5c16.3,0,30.6,1.8,42.8,5.5,12.3,3.7,22.9,8.6,31.9,14.8s16.5,13.3,22.5,21.3,10.7,16.3,14.2,24.8,6,16.9,7.5,25.4,2.3,16.3,2.3,23.5c0,14.8-2.7,29.1-8.1,42.8-5.4,13.8-13.5,26.1-24.1,36.8-10.6,10.8-23.8,19.4-39.6,25.9-15.7,6.5-33.9,9.8-54.6,9.8h-75.3v-230.7h0ZM834.2,813.1h39.4c13.2,0,25.8-1.8,37.6-5.4,11.8-3.6,22.2-9,31.1-16.1,8.9-7.2,16-16.1,21.2-26.9,5.2-10.8,7.8-23.3,7.8-37.6s-1.2-16-3.6-25.9c-2.4-9.9-6.9-19.3-13.5-28.2s-15.8-16.5-27.5-22.6c-11.7-6.2-26.9-9.3-45.6-9.3h-46.9v172Z" class="cls-1"/>
            <path d="M1039.7,611.8h80.1c10,0,19.3,1.2,27.9,3.6,8.6,2.4,16,5.9,22.2,10.6,6.2,4.7,11.1,10.6,14.7,17.9,3.6,7.3,5.4,15.8,5.4,25.6s-3.7,24.1-11.1,32.4c-7.4,8.4-16.9,14.5-28.7,18.4v.7c6.9.4,13.5,2.2,19.5,5.4,6.1,3.2,11.3,7.3,15.8,12.4,4.4,5.1,8,11,10.6,17.8,2.6,6.7,3.9,14,3.9,21.8s-2.1,19.6-6.4,27.5c-4.2,7.9-10,14.6-17.4,20s-16,9.6-25.7,12.4c-9.8,2.8-20.3,4.2-31.6,4.2h-79.2v-230.7h0ZM1071,707.6h42.7c5.9,0,11.4-.6,16.6-1.8s9.8-3.2,13.7-6c3.9-2.8,7-6.4,9.3-10.8,2.3-4.3,3.4-9.7,3.4-16,0-9.1-2.9-17-8.8-23.8-5.9-6.7-15.1-10.1-27.7-10.1h-49.2v68.4h0ZM1071,815.1h45.9c4.8,0,10-.5,15.8-1.5s11.1-2.9,16.1-5.9c5-2.9,9.2-6.9,12.7-11.9s5.2-11.6,5.2-19.9c0-13.7-4.5-23.9-13.4-30.8-8.9-6.8-21-10.3-36.2-10.3h-46.3v80.1l.2.2Z" class="cls-1"/>
          </g>
          <g>
            <g>
              <path d="M600,.5c-110.2,0-187.1,68.5-187.1,166.7s16.6,116.6,30.5,187c10,50.7,18.8,91.6,19,92.6,2.8,12.4,14.8,20.5,27.5,18.4l2.6-.4-1.9-1.9c-3.6-3.6-6.2-7.9-7.6-12.6-.8-2.7-1.1-5-1.5-7.2-.2-1-.3-2-.5-3l-4.9-29.7c-2.2-13.4-4.2-26.8-6.1-39.6-.1-.9.5-1.7,1.3-1.8.8-.1,1.6.4,1.8,1.2,2.7,12.7,5.4,25.9,8,39.3l5.7,29.5c.2.9.4,1.9.6,2.9.4,2.3.9,4.7,1.4,6.5,1.6,5.1,4.9,9.5,9.4,12.6.5.3,1,.7,1.5,1,2.5,1.5,5.3,2.5,8.2,2.9,3,.5,5.9.4,8.8-.2,3.2-.7,6.3-2.1,9.1-4.1l1.1-.8-.8-1.1c-2.2-3.1-3.7-6.5-4.6-10.1-.6-2.8-.9-5.1-1.1-7.4,0-1-.2-1.9-.3-2.9l-2.9-29.8c-1.3-13.6-2.5-27-3.5-39.8,0-.4,0-.8.4-1.1.3-.3.7-.5,1.1-.5.8,0,1.6.5,1.7,1.3,1.8,12.7,3.7,26,5.4,39.6l3.8,29.7c0,.9.2,1.8.3,2.8.3,2.5.6,4.8,1.1,6.7.5,2.2,1.4,4.3,2.6,6.3,1.7,2.9,4,5.4,6.7,7.3l.2.2c0,.1.3.2.4.3,4.9,3.2,11,4.6,16.8,3.7s11.2-4,14.9-8.5c.9-1.1,1.8-2.3,2.5-3.6l.3-.5-.2-.6c-.4-1.3-.8-2.6-1.2-4.1-.4-2.1-.7-4.6-.7-7.9l-.2-14.7c-.3-18.7-.5-37.9-.5-58.9s.7-1.6,1.6-1.6,1.5.7,1.6,1.5c1.3,21,2.2,40.2,2.9,58.8l.6,14.7c0,2.7.2,4.6.7,6.8.4,1.7,1.1,4,2.2,6,0,.1,0,.2.3.4,4.1,7.5,12.2,12.3,20.5,12.3h.4c8.4.2,16.8-4.7,21-12.3,0-.1,0-.2.2-.3,1-1.7,1.7-3.7,2.3-6.1.5-2.1.6-3.9.7-6.4l.6-15c.7-17.6,1.6-36.8,2.9-58.8,0-.9.8-1.5,1.7-1.5s1.5.7,1.5,1.6c0,22,0,41.3-.5,58.9l-.2,14.7c0,2.1,0,5.2-.7,7.8-.3,1.4-.7,2.8-1.2,4.1l-.2.6.3.5c.7,1.3,1.6,2.5,2.5,3.6,3.7,4.6,9.2,7.7,14.9,8.5,5.8.9,12-.5,16.8-3.7.2-.1.3-.2.4-.3l.2-.2c2.7-1.9,5.1-4.4,6.8-7.3,1.2-2,2.1-4.1,2.6-6.3.5-1.9.8-4.3,1.1-6.8,0-.9.2-1.8.3-2.7l3.8-29.7c1.8-13.6,3.6-26.9,5.4-39.6,0-.4.3-.8.6-1,.3-.3.8-.4,1.2-.3.8.1,1.4.9,1.3,1.7-1,12.8-2.2,26.2-3.5,39.8l-2.9,29.8c0,1-.2,1.9-.3,2.8-.2,2.3-.4,4.7-1.1,7.5-.8,3.6-2.4,7-4.6,10.2l-.8,1.1,1.1.8c2.7,2,5.9,3.4,9,4,2.9.6,5.8.7,8.8.2s5.7-1.5,8.3-2.9c.5-.3,1-.6,1.5-1,4.5-3.1,7.8-7.5,9.3-12.6.5-1.8,1-4.3,1.4-6.6.2-.9.4-1.9.5-2.8l5.7-29.5c2.6-13.4,5.3-26.6,8-39.3.2-.8,1-1.4,1.9-1.2.8.2,1.4.9,1.2,1.8-1.9,12.9-3.9,26.2-6.1,39.6l-4.9,29.7c-.2,1-.3,2-.5,3-.3,2.2-.7,4.5-1.5,7.2-1.3,4.6-4,9-7.5,12.6l-1.7,1.7,2.4.6h0c1.3.2,2.6.4,3.9.4,11,0,20.9-7.7,23.4-18.8.2-1,9.2-43.4,19.5-95.3,13.8-70,30-157.4,30-184.2.3-98.4-76.6-166.9-186.8-166.9Z" class="cls-2"/>
              <path d="M756.6,354c-10.4,52.5-18.9,92-19.1,92.6-2.4,10.6-12.5,18.2-23.3,18.2s-2.6-.1-3.9-.3l-1.3-.3.9-.9c3.7-3.7,6.3-8.1,7.7-12.9.8-2.7,1.1-5,1.5-7.3v-.4c.2-.9.3-1.7.5-2.6l4.9-29.7c2.2-13.4,4.2-26.8,6.1-39.6.2-1.2-.6-2.2-1.7-2.5-.6-.1-1.2,0-1.7.3s-.8.8-1,1.4c-2.6,12.5-5.3,25.7-8,39.3l-5.7,29.5c0,.7-.3,1.3-.4,2l-.2.9c-.4,2.3-.9,4.7-1.4,6.5-1.5,4.9-4.7,9.3-9.1,12.3-.5.3-1,.6-1.4.9-2.5,1.4-5.2,2.4-8,2.8-2.8.5-5.7.4-8.6-.2-3.1-.6-6.1-2-8.8-3.9l-.6-.4.4-.6c2.2-3.2,3.8-6.7,4.7-10.4.6-2.8.9-5.2,1.1-7.6,0-.9.2-1.9.3-2.8l2.9-29.8c1.3-13.9,2.5-27.2,3.5-39.8,0-1.2-.7-2.2-1.9-2.4-.6,0-1.2,0-1.6.4-.5.4-.8.9-.9,1.5-1.8,12.6-3.6,25.9-5.4,39.6l-3.8,29.7c0,.9-.2,1.8-.3,2.8-.3,2.5-.6,4.8-1,6.6-.5,2.1-1.4,4.2-2.5,6.1-1.7,2.8-3.9,5.2-6.6,7.1l-.2.2c0,.1-.3.2-.4.3-4.7,3.1-10.7,4.4-16.3,3.6s-10.9-3.8-14.5-8.3c-.9-1.1-1.7-2.2-2.4-3.5l-.2-.3v-.3c.6-1.3,1-2.7,1.3-4.2.6-2.8.7-6,.7-8l.2-14.7c.3-17.4.5-36.7.5-58.9s-.9-2.1-2.1-2.2c-1.2,0-2.3.9-2.3,2.1-1.3,21.9-2.2,41.1-2.9,58.8l-.6,15c0,2.5-.2,4.3-.6,6.3-.6,2.4-1.3,4.3-2.2,6,0,0,0,.1-.2.3-4,7.2-12,12-20.1,12s-.3,0-.4,0h-.4c-8.1,0-16-4.7-20-12,0-.2-.2-.3-.3-.4-1.1-2-1.7-4.2-2.2-5.9-.5-2.2-.6-4.1-.7-6.7l-.6-14.7c-.7-18.5-1.7-37.8-2.9-58.8,0-1.2-1-2.1-2.2-2.1s-2.2,1-2.2,2.2c0,21.1,0,40.3.5,58.9l.2,14.7c0,3.3.2,5.9.7,8,.3,1.5.7,2.8,1.2,4.2v.3c0,0,0,.3,0,.3-.7,1.2-1.5,2.4-2.4,3.5-3.6,4.4-8.9,7.4-14.5,8.3-5.7.8-11.6-.5-16.3-3.6,0,0-.2-.2-.4-.3l-.2-.2c-2.6-1.9-4.9-4.3-6.6-7.1-1.2-1.9-2-4-2.6-6.1-.5-1.8-.7-4.1-1.1-6.7,0-.9-.2-1.8-.3-2.7l-3.8-29.7c-1.8-13.8-3.6-27.2-5.4-39.6-.2-1.2-1.1-2-2.4-1.9-.6,0-1.1.3-1.5.8-.4.4-.6,1-.5,1.6,1,12.8,2.2,26.2,3.5,39.8l2.9,29.8c0,.9.2,1.9.3,2.9.2,2.3.4,4.7,1.1,7.5.9,3.7,2.5,7.1,4.7,10.3l.4.6-.6.4c-2.7,1.9-5.7,3.3-8.8,4-2.8.6-5.7.7-8.6.2-2.8-.5-5.5-1.4-8-2.9-.5-.3-1-.6-1.4-.9-4.3-3-7.6-7.3-9.1-12.3-.5-1.7-1-4-1.4-6.3v-.4c-.2-.9-.4-1.8-.6-2.7l-5.7-29.5c-2.6-13.4-5.3-26.6-8-39.3-.2-1.1-1.3-1.9-2.5-1.7-1.2.2-2,1.3-1.9,2.5,1.9,12.9,3.9,26.2,6.1,39.6l4.9,29.7c.2.9.3,1.8.4,2.7v.3c.4,2.2.8,4.5,1.5,7.3,1.4,4.7,4.1,9.2,7.7,12.8l1,1-1.4.2c-12.3,2-24-5.8-26.7-18-.9-4.3-9.9-43.8-19.6-92.5,0,0,14,93.7,14,93.9.2.8.4,1.6.7,2.5l.3.8c.2.5.4,1,.6,1.5.1.3.3.7.4,1,.2.4.4.8.6,1.2v.2c.2.3.4.6.6,1,.1.2.2.3.3.5h0c.6,1.2,1.3,2.1,2,3h.1c.4.6.8,1.1,1.3,1.6l.2.2,1.4,1.4h.2c5.4,5.1,12.4,7.8,19.6,7.8s3.2-.1,4.8-.4l10.8-1.7c1.8.7,3.7,1.2,5.6,1.5,3.6.6,7.2.5,10.7-.3,3.9-.8,7.6-2.5,11-4.9l2.6-1.9c.8.7,1.7,1.4,2.5,2h.2c.2.3.5.5.7.6,5.8,3.8,13.3,5.5,20.3,4.5s13.6-4.8,18.1-10.3c.8-1,1.6-2,2.3-3.2,5.2,8.4,14.6,13.7,24.3,13.7h.8c9.6,0,19.1-5.3,24.3-13.7.7,1.1,1.5,2.2,2.3,3.2,4.5,5.5,11.1,9.3,18.1,10.2,1.4.2,2.8.3,4.2.3,5.7,0,11.4-1.7,16.1-4.8.2-.2.5-.3.7-.5h.2c.9-.7,1.7-1.4,2.5-2.1l2.6,1.9c3.3,2.4,7.1,4.1,11,4.9,3.5.7,7.1.8,10.6.2,2.4-.4,4.8-1.1,7-2l9.1,2.2h.4c1.6.3,3.2.5,4.7.5,13.5,0,25.4-9.6,28.4-22.8,0-.5,14.1-93.8,14.1-93.8l-.2.4Z" class="cls-3"/>
            </g>
            <path d="M466.4,45.9c-33.8,29.5-53.6,71.6-53.6,121.3s48.6,277.2,49.1,279.5c1.1,4.9,4.6,8.8,8.1,12-12.2-58.2-51.4-246.3-51.4-290s17.4-91.2,47.8-122.8" class="cls-5"/>
            <g>
              <path d="M549.9,72.4c-44.9,0-81.4,36.5-81.4,81.4s36.5,81.4,81.4,81.4,81.4-36.5,81.4-81.4-36.5-81.4-81.4-81.4" class="cls-4"/>
              <path d="M460.4,147.3c0,44.9,36.5,81.4,81.4,81.4s81.4-36.5,81.4-81.4-36.5-81.4-81.4-81.4-81.4,36.5-81.4,81.4" class="cls-1"/>
              <path d="M597.4,148.5c-1.2,34.2-25.6,52.3-41.2,48.6-13.1-3.1-14.7-32.1-6.5-39.7,5.4-5,16-6.4,16.1-10s-10.4-5.7-15.4-11.1c-7.6-8.2-4-37,9.3-39.2,15.8-2.6,38.9,17.2,37.7,51.3" class="cls-3"/>
              <g>
                <path d="M491.8,262.2c49.5,7.2,101.4-5.1,142.3-33.9,5.7-3.8,11.5,4.4,6,8.5-21.7,14.8-46.1,25.4-71.7,31.2-25.5,5.8-52.1,6.7-77.9,2.7-2.4-.4-4-2.6-3.6-5s2.6-4,4.9-3.6" class="cls-4"/>
                <path d="M639.8,241.9c-1.4-6.6-7.4-11.7-13.9-12-6.9-.5-6.4-10.6.5-10.5,5.6.7,10.8,3.7,14.4,7.8,3.1,3,9.9,16.4,2.7,17.4-1.8.1-3.3-1.1-3.7-2.8" class="cls-4"/>
              </g>
              <path d="M490.1,258.5c49.5,7.2,101.4-5.1,142.3-33.9,5.7-3.8,11.5,4.4,6,8.5-21.7,14.8-46.1,25.4-71.7,31.2-25.5,5.8-52.1,6.7-77.9,2.7-2.4-.4-4-2.6-3.6-5s2.6-4,4.9-3.6" class="cls-3"/>
              <path d="M638.1,238.3c-1.4-6.6-7.4-11.7-13.9-12-6.9-.5-6.4-10.6.5-10.5,5.6.7,10.8,3.7,14.4,7.8,3.1,3,9.9,16.4,2.7,17.4-1.8.1-3.3-1.1-3.7-2.8" class="cls-3"/>
            </g>
          </g>
        </g>
      </g>
    </g>
  </g>
</svg>